# xmcd
#
# Track frame offsets:
#	150
#	14274
#	26974
#	40420
#	51394
#	66323
#	78063
#	90232
#	108445
#	126008
#	140861
#	154274
#	171198
#	189799
#	203239
#	216699
#	228819
#	242716
#	255159
#	269379
#
# Disc length: 3832 seconds
#
# Revision: 0
# Processed by: cddbd v1.5.2PL0 Copyright (c) Steve Scherf et al.
# Submitted via: EasyCDDAExtractor 16.0.6.1
#
DISCID=180ef614
DTITLE=Fernando E Sorocaba - Livre
DYEAR=1900
DGENRE=
TTITLE0=Livre
TTITLE1=Veneno
TTITLE2=As Mina Pira
TTITLE3=Calma Ai - Part. Marcos E Belutti
TTITLE4=A Verdade
TTITLE5=Eu Acho E Pouco
TTITLE6=Falo Ou Nao Falo
TTITLE7=Ferias Em Salvador
TTITLE8=06 De Janeiro De 2003
TTITLE9=Apelou
TTITLE10=Pega Eu
TTITLE11=Nada Faz Sentido
TTITLE12=Everest - Part. Luan Santana
TTITLE13=To Passando Mal
TTITLE14=Perdeu - Part. Taeme E Thiago
TTITLE15=E Tenso
TTITLE16=Ta Tirando Onda - Part. Inimigos Da Hp
TTITLE17=O Cara
TTITLE18=Teus Segredos
TTITLE19=Madri
EXTD=
EXTT0=
EXTT1=
EXTT2=
EXTT3=
EXTT4=
EXTT5=
EXTT6=
EXTT7=
EXTT8=
EXTT9=
EXTT10=
EXTT11=
EXTT12=
EXTT13=
EXTT14=
EXTT15=
EXTT16=
EXTT17=
EXTT18=
EXTT19=
PLAYORDER=
